<?xml version="1.0" encoding="UTF-8"?>
<svg width="284px" height="66px" viewBox="0 0 284 66" version="1.1" xmlns="http://www.w3.org/2000/svg" xmlns:xlink="http://www.w3.org/1999/xlink">
    <!-- Generator: Sketch 41.2 (35397) - http://www.bohemiancoding.com/sketch -->
    <title>Artboard</title>
    <desc>Created with Sketch.</desc>
    <defs></defs>
    <g id="Page-1" stroke="none" stroke-width="1" fill="none" fill-rule="evenodd">
        <g id="Artboard">
            <g id="emblema_logo_rgb" transform="translate(1.000000, 1.000000)">
                <path d="M32.2714273,0.464152381 C24.9620103,0.464152381 18.294217,3.15926349 13.181597,7.60066032 C10.2209624,10.5913905 9.37768561,13.5242159 16.8592207,12.5764063 L16.862276,12.5764063 C21.7793535,11.8490413 27.3645343,11.1897397 31.3863941,11.1897397 C40.2886672,11.1897397 47.2609771,14.7320889 47.1876487,22.522819 C47.1265417,29.2895492 41.9059661,37.1645968 30.6694052,38.722946 C30.6266303,38.7402159 30.5716339,38.755454 30.4850657,38.7717079 C28.4471469,39.1191365 29.8403867,43.7728508 39.8853609,47.9186286 C41.937538,48.7689143 43.9683277,49.346946 45.9105122,49.7512635 C51.1361801,50.595454 55.3240472,47.5640889 57.4312207,44.1050413 C59.9417004,39.8180571 61.3889181,34.8301206 61.3889181,29.5038984 C61.3889181,13.4632635 48.3547926,0.464152381 32.2714273,0.464152381" id="Fill-1" fill="#0090FF"></path>
                <path d="M38.042679,55.0709841 C37.9876827,55.0567619 37.9662952,55.0313651 37.9255572,55.0110476 C29.8492472,52.0893968 25.5340738,45.7422222 23.464583,41.5192381 C23.4605092,41.5100952 23.4513432,41.5060317 23.4482878,41.4979048 C22.5235351,39.7638095 21.8045092,38.5051429 21.1272399,38.2989206 C20.4509889,38.0977778 19.6077122,38.4523175 18.9721993,40.2433016 C18.1879926,42.5097143 17.0789004,46.0175238 16.3272841,49.6441905 C16.0248044,51.7287619 16.0747085,53.6142222 18.5363026,55.0872381 C22.6314908,57.2805079 27.3010849,58.5432381 32.2711218,58.5432381 C34.3141328,58.5432381 36.3031661,58.3309206 38.2229446,57.9306667 C40.2588266,57.4206984 40.4289077,55.6855873 38.042679,55.0709841" id="Fill-3" fill="#0090FF"></path>
                <path d="M32.2447439,16.5011302 L32.2569653,16.4848762 C31.783386,16.4848762 31.3057328,16.4869079 30.8250244,16.4909714 L30.8229875,16.4909714 C22.7853786,16.5641143 13.9218066,17.3890032 8.07284723,23.5309714 L8.07284723,23.502527 C7.96489151,23.6254476 7.85286199,23.758527 7.74083247,23.8875429 C7.39761476,24.270527 7.0656,24.6738286 6.74376974,25.0954159 C6.72034539,25.1258921 6.69895793,25.1543365 6.67553358,25.1848127 C6.51665535,25.3961143 6.35064797,25.5891302 6.19889889,25.8085587 C6.18973284,25.822781 6.18056679,25.8370032 6.17140074,25.8532571 C3.12012399,29.9797333 -0.0279055351,36.222273 0.628994834,43.8555429 C0.653437638,44.118654 0.681954244,44.3604317 0.712507749,44.5910349 C1.23802804,50.1437968 4.53271439,55.9952254 13.3850834,60.5392254 C14.2701166,60.9963683 15.5716959,61.5439238 16.4159911,61.8588444 C19.5049506,63.0027175 24.0258509,63.5370667 24.7713565,63.3694476 C25.6105594,63.1804952 24.7713565,62.7223365 24.7713565,62.7223365 C24.7713565,62.7223365 15.27329,61.0532571 12.1120207,56.8333206 C12.1099838,56.8292571 12.1079469,56.8262095 12.1048915,56.8241778 C10.0567882,54.0752254 9.64227897,50.9869714 9.80013875,48.3670349 C9.88670701,46.9600508 10.1341904,45.686146 10.3867661,44.6773841 L10.3867661,44.6753524 C10.8807144,42.6954159 11.4744708,40.3162413 12.0987808,37.7917968 C13.8219985,31.6853841 15.386338,26.1153524 15.7214081,24.862781 C15.9821314,23.8560508 16.7398583,22.9559873 17.6157255,22.2245587 C18.4610391,21.5246222 19.465231,21.0237968 20.5040502,20.8175746 L20.5060871,20.8175746 C22.6967734,20.3868444 24.2519469,21.2970667 23.7406849,23.5959873 C23.186648,25.8085587 22.5144708,28.5382095 22.2425446,29.5032889 C21.8219247,30.9844317 23.0023085,33.3768127 28.9388546,33.3768127 C32.6511055,33.3768127 35.9162568,32.0856381 37.844183,29.2818286 C39.0021609,27.6005587 39.6784118,25.3727492 39.6784118,22.5486222 C39.6784118,18.3246222 36.4061314,16.6900825 32.2447439,16.5011302" id="Fill-5" fill="#FF094F"></path>
                <path d="M270.956875,40.3705905 C270.142115,41.5469714 269.131813,42.1351619 267.924949,42.1351619 C267.250735,42.1351619 266.69568,41.966527 266.260801,41.630273 C265.825923,41.2950349 265.481687,40.8470349 265.229111,40.286273 C264.976536,39.726527 264.801362,39.0966857 264.702573,38.3967492 C264.603783,37.6968127 264.555916,36.982654 264.555916,36.254273 C264.555916,34.1534476 264.899134,32.4803048 265.587606,31.2338286 C266.27506,29.9883683 267.335266,29.3646222 268.767207,29.3646222 C269.467901,29.3646222 270.044344,29.5190349 270.49348,29.8268444 C270.942617,30.1356698 271.293982,30.5410032 271.546558,31.0448762 C271.799134,31.5487492 271.967178,32.1308444 272.051709,32.7881143 C272.136241,33.4464 272.177997,34.126019 272.177997,34.8259556 C272.177997,37.3463365 271.770617,39.1942095 270.956875,40.3705905 M279.716565,18.4643048 C279.576019,18.030527 279.337702,17.6444952 279.000595,17.3092571 C278.663488,16.9730032 278.214351,16.7068444 277.653185,16.510781 C277.091001,16.3147175 276.389289,16.2171937 275.54703,16.2171937 L273.905289,16.2171937 C273.680211,16.2171937 273.525407,16.2243048 273.441894,16.2375111 C273.357362,16.2517333 273.287089,16.2872889 273.231075,16.3431619 C273.118027,16.4549079 273.047754,16.8196063 273.020255,17.4352254 C272.964241,18.3312254 272.908226,19.1297016 272.852211,19.8296381 C272.795178,20.5295746 272.746292,21.2295111 272.704536,21.9294476 C272.662779,22.6304 272.612875,23.3862095 272.556861,24.1978921 C272.500846,25.0105905 272.444831,25.9624635 272.388816,27.054527 C272.163739,25.8507175 271.622942,25.0034794 270.767444,24.5128127 C269.910927,24.0231619 268.780447,23.7783365 267.377023,23.7783365 C265.917584,23.7783365 264.646558,24.0028444 263.565982,24.4498286 C262.484388,24.8988444 261.558617,25.4931302 260.786632,26.2357333 C260.013628,26.9773206 259.376078,27.8245587 258.869908,28.7764317 C258.364757,29.7293206 257.971635,30.7086222 257.691562,31.7173841 C257.410469,32.7251302 257.21289,33.726781 257.101879,34.7203048 C256.988831,35.7148444 256.932816,36.6179556 256.932816,37.4296381 C256.932816,39.2510984 257.149746,40.8053841 257.585643,42.0924952 C258.020521,43.3816381 258.610204,44.4452571 259.354691,45.2853841 C260.098159,46.1255111 260.968934,46.742146 261.965997,47.134273 C262.962041,47.5253841 264.00799,47.7214476 265.102824,47.7214476 C266.646794,47.7214476 267.93106,47.3862095 268.956639,46.7137016 C269.9812,46.0411937 270.746056,45.1736381 271.251207,44.1090032 C271.251207,44.7540825 271.357126,45.2792889 271.566927,45.6846222 C271.777746,46.0909714 272.073097,46.4130032 272.45196,46.6507175 C272.830824,46.8884317 273.27996,47.0570667 273.79937,47.1545905 C274.318779,47.2531302 274.872816,47.3018921 275.462499,47.3018921 L276.978971,47.3018921 C277.372093,47.3018921 277.61041,47.246019 277.694942,47.134273 C277.779473,47.022527 277.848728,46.798019 277.905761,46.4617651 C277.933259,46.1539556 277.982145,45.5312254 278.052418,44.5925587 C278.122691,43.6549079 278.214351,42.5344 278.326381,41.2320508 C278.43841,39.9297016 278.551458,38.5013841 278.663488,36.9470984 C278.775517,35.3928127 278.887547,33.8253206 279.000595,32.2425905 C279.112624,30.6608762 279.224654,29.1269079 279.337702,27.6427175 C279.449731,26.158527 279.547503,24.8358603 279.632034,23.6726857 C279.716565,22.5115429 279.814337,21.2295111 279.927385,19.8296381 C279.927385,19.3531937 279.857111,18.8990984 279.716565,18.4643048 M245.057687,39.446146 C244.805111,40.0343365 244.502632,40.5321143 244.152285,40.9374476 C243.80092,41.3437968 243.400669,41.6455111 242.951532,41.8405587 C242.502396,42.0376381 242.053259,42.1351619 241.604123,42.1351619 C241.126469,42.1351619 240.684462,42.0091937 240.2781,41.7572571 C239.87072,41.5053206 239.66703,41.0573206 239.66703,40.4122413 C239.66703,39.8524952 239.835075,39.3770667 240.172182,38.9839238 C240.509289,38.5928127 240.951296,38.2778921 241.499222,38.0391619 C242.04613,37.8014476 242.671458,37.6267175 243.37317,37.5139556 C244.074883,37.4022095 244.790853,37.3463365 245.521082,37.3463365 C245.464049,38.1590349 245.310263,38.8579556 245.057687,39.446146 M254.448816,41.8405587 C254.196241,41.7846857 253.908019,41.7013841 253.58517,41.5886222 C253.262322,41.4768762 252.975119,41.2737016 252.722543,40.9801143 C252.469968,40.6855111 252.34368,40.1887492 252.34368,39.4888127 C252.34368,39.1810032 252.378307,38.6344635 252.44858,37.8502095 C252.517835,37.0669714 252.602366,36.2329397 252.701156,35.3511619 C252.798927,34.4683683 252.883458,33.6282413 252.953731,32.830781 C253.024004,32.0323048 253.058632,31.4796698 253.058632,31.1708444 C253.058632,28.8190984 252.35692,26.998654 250.953495,25.710527 C249.549052,24.4224 247.289111,23.7783365 244.173672,23.7783365 C242.572669,23.7783365 241.168226,23.9459556 239.962381,24.2822095 C238.754499,24.6184635 237.751325,25.0735746 236.950824,25.6475429 C236.150322,26.2215111 235.546381,26.9011302 235.140019,27.6843683 C234.732639,28.4686222 234.528949,29.2955429 234.528949,30.1630984 C234.528949,32.3197968 235.96089,33.3976381 238.824772,33.3976381 C239.24641,33.3976381 239.555001,33.3630984 239.751562,33.2930032 C239.947104,33.2229079 240.073392,33.0613841 240.130425,32.8094476 C240.242455,32.3055746 240.368742,31.8433524 240.509289,31.422781 C240.649835,31.0032254 240.832137,30.6456381 241.057215,30.3520508 C241.281274,30.0584635 241.575606,29.8268444 241.94123,29.6592254 C242.305835,29.4905905 242.783488,29.4072889 243.37317,29.4072889 C244.439488,29.4072889 245.142218,29.6734476 245.478307,30.2047492 C245.815414,30.7370667 245.984477,31.4512254 245.984477,32.3472254 C245.984477,32.6560508 245.977348,32.9140825 245.963089,33.1243683 C245.948831,33.334654 245.927444,33.5937016 245.899945,33.9015111 C241.463576,34.014273 238.108801,34.7832889 235.834602,36.2116063 C233.560403,37.6399238 232.423813,39.614781 232.423813,42.1351619 C232.423813,43.1429079 232.584728,44.0043683 232.907576,44.718527 C233.230425,45.4326857 233.666322,46.0137651 234.21323,46.4617651 C234.761156,46.9097651 235.406853,47.2317968 236.150322,47.4278603 C236.89379,47.6229079 237.688182,47.7214476 238.53044,47.7214476 C240.270971,47.7214476 241.681525,47.3577651 242.7621,46.6293841 C243.842676,45.902019 244.72058,45.0476698 245.394794,44.0673524 C245.618853,45.2152889 246.06799,46.1112889 246.742204,46.7553524 C247.416418,47.3994159 248.42672,47.7214476 249.77413,47.7214476 C250.728418,47.7214476 251.536049,47.5538286 252.196004,47.2175746 C252.854942,46.8813206 253.37537,46.4475429 253.754233,45.9152254 C254.133097,45.3839238 254.40706,44.7957333 254.575104,44.150654 C254.744167,43.5076063 254.82768,42.8767492 254.82768,42.2611302 C254.82768,42.0376381 254.701392,41.8974476 254.448816,41.8405587 M223.180359,36.254273 C223.054071,37.206146 222.814735,38.1163683 222.464388,38.9839238 C222.113023,39.8524952 221.62213,40.5950984 220.990691,41.2107175 C220.358233,41.8273524 219.551621,42.1351619 218.568816,42.1351619 C217.473982,42.1351619 216.631724,41.7013841 216.042041,40.8328127 C215.452359,39.9652571 215.158027,38.606019 215.158027,36.758146 C215.158027,36.1699556 215.205894,35.4497016 215.304683,34.5943365 C215.402455,33.7410032 215.613274,32.9283048 215.936123,32.158273 C216.258971,31.3882413 216.736624,30.7299556 217.368063,30.1844317 C218.000521,29.6378921 218.84889,29.3646222 219.916226,29.3646222 C221.180123,29.3646222 222.070248,29.7638603 222.590676,30.5623365 C223.110086,31.3597968 223.36979,32.4599873 223.36979,33.8598603 C223.36979,34.5039238 223.306646,35.3024 223.180359,36.254273 M220.632196,23.7783365 C218.217451,23.7783365 216.202956,24.1633524 214.588713,24.9333841 C212.974469,25.7034159 211.675945,26.718273 210.693141,27.9789714 C209.710337,29.238654 209.015754,30.6740825 208.609392,32.2842413 C208.202012,33.8954159 207.998322,35.5401143 207.998322,37.2203683 C207.998322,38.6761143 208.152108,40.0414476 208.461717,41.3153524 C208.770307,42.590273 209.303975,43.7036698 210.061702,44.6555429 C210.819429,45.6074159 211.836861,46.3561143 213.115015,46.902654 C214.392152,47.4481778 216.000285,47.7214476 217.937377,47.7214476 C219.705407,47.7214476 221.243266,47.4969397 222.54892,47.0499556 C223.853554,46.6019556 224.969776,45.9995429 225.896565,45.2437333 C226.823355,44.4869079 227.587193,43.6193524 228.191134,42.6390349 C228.795075,41.6587175 229.271709,40.6509714 229.623075,39.614781 C229.97444,38.5785905 230.212757,37.5352889 230.339045,36.4848762 C230.465333,35.4344635 230.528477,34.4754794 230.528477,33.6079238 C230.528477,30.4993524 229.763621,28.0836063 228.233908,26.3617016 C226.703178,24.638781 224.170292,23.7783365 220.632196,23.7783365 M205.303503,24.9537016 C204.854366,24.5625905 204.356344,24.2679873 203.808418,24.0719238 C203.260492,23.8768762 202.719694,23.7783365 202.187045,23.7783365 C201.737908,23.7783365 201.245997,23.8413206 200.713348,23.9672889 C200.17968,24.0932571 199.66027,24.3035429 199.155119,24.5971302 C198.649968,24.8907175 198.165185,25.2696381 197.70179,25.7308444 C197.238396,26.1930667 196.838145,26.7467175 196.502056,27.390781 C196.445023,26.9702095 196.340123,26.5648762 196.186337,26.1727492 C196.031532,25.7806222 195.786086,25.4372571 195.448979,25.142654 C195.111872,24.8490667 194.676993,24.6184635 194.143325,24.4498286 C193.609658,24.2822095 192.949702,24.1978921 192.164477,24.1978921 L190.521717,24.1978921 C189.988049,24.1978921 189.693717,24.6042413 189.637702,25.4159238 C189.412624,28.4970667 189.223193,31.0804317 189.068388,33.166019 C188.914602,35.2526222 188.780167,36.9755429 188.669156,38.3337651 C188.556108,39.6919873 188.478706,40.7556063 188.436949,41.5256381 C188.395193,42.2966857 188.373805,42.8909714 188.373805,43.3115429 C188.373805,43.9556063 188.436949,44.5224635 188.563237,45.0121143 C188.689525,45.502781 188.914602,45.9152254 189.237451,46.2514794 C189.559281,46.5877333 189.995178,46.846781 190.543104,47.0286222 C191.090012,47.2114794 191.798853,47.3018921 192.669628,47.3018921 L194.1861,47.3018921 C194.410159,47.3018921 194.620979,47.2317968 194.817539,47.0916063 C195.013082,46.9514159 195.111872,46.742146 195.111872,46.4617651 C195.111872,46.2098286 195.13937,45.6775111 195.196403,44.8658286 C195.252418,44.0531302 195.322691,43.1225905 195.407222,42.0721778 C195.490735,41.0217651 195.582396,39.9297016 195.680167,38.7949714 C195.778956,37.6612571 195.85534,36.6464 195.912373,35.7504 C196.051901,33.7064635 196.381879,32.1724952 196.902307,31.150527 C197.420698,30.1285587 198.073525,29.6165587 198.859768,29.6165587 C199.365938,29.6165587 199.702027,29.8136381 199.871089,30.2047492 C200.039134,30.5978921 200.123665,31.1017651 200.123665,31.7173841 C200.123665,32.0536381 200.109407,32.3756698 200.081908,32.6834794 C200.053392,32.9923048 200.039134,33.3275429 200.039134,33.6912254 C200.039134,33.8039873 200.109407,33.8954159 200.249953,33.9644952 C200.390499,34.0345905 200.558543,34.0904635 200.755104,34.1321143 C200.951665,34.174781 201.155355,34.2032254 201.366174,34.2164317 C201.575975,34.230654 201.765407,34.2377651 201.934469,34.2377651 C202.664698,34.2377651 203.330765,34.0904635 203.934706,33.7968762 C204.538646,33.502273 205.050927,33.0969397 205.471547,32.5788444 C205.893185,32.0607492 206.215015,31.4654476 206.440093,30.7929397 C206.66517,30.1214476 206.7772,29.4072889 206.7772,28.6504635 C206.7772,27.8103365 206.643783,27.0829714 206.376949,26.4663365 C206.110115,25.8507175 205.752639,25.3468444 205.303503,24.9537016 M176.98244,33.9441778 C175.900846,34.5039238 174.490292,34.798527 172.749761,34.8259556 C172.834292,34.2377651 172.953451,33.622146 173.108255,32.9770667 C173.262041,32.3330032 173.487119,31.7458286 173.781451,31.2135111 C174.076801,30.6811937 174.441407,30.2403048 174.876285,29.8898286 C175.311163,29.5403683 175.837702,29.3646222 176.455901,29.3646222 C177.18613,29.3646222 177.725908,29.5891302 178.077274,30.0371302 C178.427621,30.4851302 178.603813,30.9890032 178.603813,31.5487492 C178.603813,32.5859556 178.063015,33.3834159 176.98244,33.9441778 M184.036226,25.6475429 C183.418027,25.0735746 182.604285,24.6184635 181.593982,24.2822095 C180.582661,23.9459556 179.347281,23.7783365 177.887842,23.7783365 C176.062779,23.7783365 174.490292,24.030273 173.171399,24.534146 C171.851488,25.038019 170.728137,25.6963048 169.802366,26.5079873 C168.875576,27.3206857 168.12396,28.238019 167.548536,29.2599873 C166.973111,30.2819556 166.523975,31.3120508 166.201126,32.3472254 C165.878277,33.3834159 165.660329,34.3921778 165.5483,35.3714794 C165.43627,36.3528127 165.380255,37.1929397 165.380255,37.8918603 C165.380255,39.7966222 165.688846,41.3783365 166.307045,42.6390349 C166.924226,43.8987175 167.717599,44.9074794 168.686145,45.6632889 C169.654691,46.4201143 170.749525,46.9514159 171.970646,47.2592254 C173.191768,47.5670349 174.420019,47.7214476 175.655399,47.7214476 C176.582189,47.7214476 177.536477,47.638146 178.519281,47.4695111 C179.502086,47.3018921 180.39323,47.0357333 181.193731,46.6720508 C181.994233,46.3083683 182.64706,45.8319238 183.152211,45.2437333 C183.657362,44.6555429 183.909938,43.9556063 183.909938,43.1429079 C183.909938,42.5272889 183.769392,42.0234159 183.489318,41.630273 C183.208226,41.2391619 182.884359,40.9313524 182.519754,40.7068444 C182.155148,40.4833524 181.796654,40.3360508 181.446307,40.2659556 C181.094942,40.1958603 180.849495,40.1603048 180.708949,40.1603048 C180.400359,40.1603048 180.154912,40.2801778 179.97261,40.5178921 C179.789289,40.7556063 179.572359,41.0217651 179.319783,41.3153524 C179.067207,41.6099556 178.736211,41.8761143 178.329849,42.1138286 C177.922469,42.3525587 177.354174,42.4714159 176.624964,42.4714159 C175.893717,42.4714159 175.276536,42.3444317 174.771385,42.0924952 C174.266233,41.8405587 173.858853,41.5195429 173.550263,41.1264 C173.240654,40.7352889 173.009466,40.2801778 172.85568,39.7620825 C172.700875,39.2439873 172.623473,38.718781 172.623473,38.1864635 C173.07261,38.1864635 173.711178,38.1651302 174.540196,38.1234794 C175.367178,38.0808127 176.27258,37.9700825 177.256403,37.7872254 C178.238189,37.6053841 179.235252,37.3463365 180.246573,37.0100825 C181.256875,36.6738286 182.176536,36.2055111 183.004536,35.6030984 C183.832536,35.0006857 184.505731,34.2519873 185.026159,33.3549714 C185.545569,32.4599873 185.805274,31.3679238 185.805274,30.078781 C185.805274,29.2112254 185.664728,28.398527 185.383635,27.6427175 C185.102543,26.8869079 184.653407,26.2215111 184.036226,25.6475429 M163.001156,25.3326222 C162.509244,24.9963683 161.926691,24.7444317 161.253495,24.5757968 C160.579281,24.4081778 159.890809,24.310654 159.190115,24.2822095 C158.487385,24.254781 157.926218,24.2395429 157.50458,24.2395429 C156.943414,24.2395429 156.578809,24.3035429 156.409746,24.4284952 C156.241702,24.5554794 156.115414,24.814527 156.030883,25.206654 C155.55323,27.1947175 155.139739,28.9653841 154.788373,30.5196698 C154.437008,32.0739556 154.115178,33.502273 153.819827,34.8046222 C153.525495,36.1069714 153.230145,37.3321143 152.935813,38.4800508 C152.64148,39.6290032 152.324742,40.7911619 151.988654,41.966527 C151.875606,41.2950349 151.756447,40.4965587 151.630159,39.5721143 C151.503872,38.6486857 151.377584,37.6897016 151.251296,36.6951619 C151.125008,35.7016381 150.991591,34.7070984 150.851045,33.7125587 C150.710499,32.7190349 150.59134,31.8088127 150.493569,30.9818921 C150.394779,30.1559873 150.304137,29.4489397 150.219606,28.8607492 C150.135075,28.2725587 150.07906,27.8804317 150.051562,27.6843683 C149.909997,26.9570032 149.678809,26.3688127 149.35596,25.9208127 C149.033111,25.4728127 148.569717,25.1223365 147.966794,24.8704 C147.362853,24.6184635 146.604108,24.4437333 145.692595,24.3451937 C144.780063,24.2476698 143.677082,24.1978921 142.386706,24.1978921 C141.992565,24.1978921 141.670735,24.310654 141.418159,24.534146 C141.165584,24.758654 141.024019,24.9689397 140.996521,25.1639873 C140.996521,25.2208762 141.024019,25.3255111 141.081052,25.4789079 C141.137067,25.6333206 141.234838,25.9279238 141.375385,26.3617016 C141.515931,26.7954794 141.712492,27.4110984 141.965067,28.2095746 C142.217643,29.0080508 142.55475,30.078781 142.976388,31.422781 C143.397008,32.7677968 143.909289,34.4409397 144.51323,36.4432254 C145.116152,38.4455111 145.824993,40.8470349 146.639754,43.646781 C146.7803,44.1232254 146.935104,44.5783365 147.103148,45.0121143 C147.271193,45.4469079 147.482012,45.8319238 147.734587,46.1671619 C147.987163,46.5034159 148.302883,46.7766857 148.682765,46.9869714 C149.061628,47.1962413 149.545392,47.3018921 150.135075,47.3018921 L153.882971,47.3018921 C154.276093,47.3018921 154.557185,47.2744635 154.72523,47.2175746 C154.894292,47.1617016 155.089835,46.9798603 155.314912,46.6720508 C155.567488,46.2799238 155.96061,45.5870984 156.494277,44.5925587 C157.026927,43.5990349 157.60337,42.4429714 158.220551,41.1264 C158.837731,39.8108444 159.477318,38.4109714 160.137274,36.9257651 C160.796211,35.4415746 161.393023,34.0213841 161.926691,32.662146 C162.460359,31.3039238 162.895237,30.0930032 163.232344,29.0283683 C163.569451,27.9647492 163.737495,27.1947175 163.737495,26.718273 C163.737495,26.1300825 163.492049,25.6678603 163.001156,25.3326222 M130.99534,33.9441778 C129.913746,34.5039238 128.503193,34.798527 126.762661,34.8259556 C126.846174,34.2377651 126.965333,33.622146 127.120137,32.9770667 C127.274942,32.3330032 127.499001,31.7458286 127.794351,31.2135111 C128.088683,30.6811937 128.453289,30.2403048 128.889185,29.8898286 C129.324063,29.5403683 129.850602,29.3646222 130.468801,29.3646222 C131.198012,29.3646222 131.738809,29.5891302 132.090174,30.0371302 C132.440521,30.4851302 132.616713,30.9890032 132.616713,31.5487492 C132.616713,32.5859556 132.074897,33.3834159 130.99534,33.9441778 M138.049126,25.6475429 C137.430927,25.0735746 136.617185,24.6184635 135.605864,24.2822095 C134.595562,23.9459556 133.360182,23.7783365 131.900742,23.7783365 C130.074661,23.7783365 128.503193,24.030273 127.183281,24.534146 C125.86337,25.038019 124.741038,25.6963048 123.814248,26.5079873 C122.888477,27.3206857 122.136861,28.238019 121.561436,29.2599873 C120.986012,30.2819556 120.535857,31.3120508 120.214027,32.3472254 C119.891178,33.3834159 119.67323,34.3921778 119.5612,35.3714794 C119.448152,36.3528127 119.393156,37.1929397 119.393156,37.8918603 C119.393156,39.7966222 119.701746,41.3783365 120.318927,42.6390349 C120.936108,43.8987175 121.72948,44.9074794 122.698027,45.6632889 C123.667591,46.4201143 124.762425,46.9514159 125.983547,47.2592254 C127.204669,47.5670349 128.43292,47.7214476 129.6683,47.7214476 C130.595089,47.7214476 131.549377,47.638146 132.532182,47.4695111 C133.513968,47.3018921 134.40613,47.0357333 135.205613,46.6720508 C136.006115,46.3083683 136.658942,45.8319238 137.164093,45.2437333 C137.670263,44.6555429 137.922838,43.9556063 137.922838,43.1429079 C137.922838,42.5272889 137.781274,42.0234159 137.5012,41.630273 C137.220108,41.2391619 136.897259,40.9313524 136.532654,40.7068444 C136.16703,40.4833524 135.809554,40.3360508 135.459207,40.2659556 C135.107842,40.1958603 134.862396,40.1603048 134.721849,40.1603048 C134.412241,40.1603048 134.166794,40.2801778 133.984492,40.5178921 C133.802189,40.7556063 133.584241,41.0217651 133.331665,41.3153524 C133.079089,41.6099556 132.749111,41.8761143 132.34275,42.1138286 C131.93537,42.3525587 131.367075,42.4714159 130.636846,42.4714159 C129.906617,42.4714159 129.289436,42.3444317 128.784285,42.0924952 C128.278115,41.8405587 127.870735,41.5195429 127.562145,41.1264 C127.253554,40.7352889 127.021348,40.2801778 126.867562,39.7620825 C126.712757,39.2439873 126.636373,38.718781 126.636373,38.1864635 C127.084492,38.1864635 127.724078,38.1651302 128.552078,38.1234794 C129.380078,38.0808127 130.28548,37.9700825 131.268285,37.7872254 C132.251089,37.6053841 133.248152,37.3463365 134.258455,37.0100825 C135.269776,36.6738286 136.188418,36.2055111 137.017436,35.6030984 C137.844418,35.0006857 138.518632,34.2519873 139.038041,33.3549714 C139.557451,32.4599873 139.817156,31.3679238 139.817156,30.078781 C139.817156,29.2112254 139.67661,28.398527 139.396536,27.6427175 C139.115444,26.8869079 138.666307,26.2215111 138.049126,25.6475429 M116.592418,42.3241143 C116.325584,42.2814476 116.038381,42.198146 115.72979,42.0721778 C115.420182,41.9462095 115.13196,41.7298286 114.866145,41.4210032 C114.598292,41.1131937 114.465894,40.5950984 114.465894,39.8667175 C114.465894,39.3344 114.500521,38.550146 114.570794,37.5139556 C114.641067,36.478781 114.732728,35.3084952 114.844757,34.006146 C114.956787,32.7037968 115.069835,31.3394794 115.181864,29.9111619 C115.293894,28.4828444 115.405923,27.1104 115.518971,25.7938286 C115.631001,24.478273 115.722661,23.294781 115.792934,22.2443683 C115.862189,21.1949714 115.897835,20.3893841 115.897835,19.8296381 C115.897835,19.3531937 115.827562,18.8990984 115.687015,18.4643048 C115.546469,18.030527 115.308152,17.6444952 114.971045,17.3092571 C114.633938,16.9730032 114.184801,16.7068444 113.623635,16.510781 C113.061451,16.3147175 112.359739,16.2171937 111.518499,16.2171937 L109.875739,16.2171937 C109.510115,16.2171937 109.286056,16.2588444 109.201525,16.3431619 C109.089495,16.4549079 109.019222,16.8196063 108.990706,17.4352254 C108.822661,20.4320508 108.660728,23.0641778 108.506942,25.3326222 C108.352137,27.6010667 108.21261,29.5749079 108.085303,31.2551619 C107.960034,32.9354159 107.839857,34.3637333 107.727827,35.5401143 C107.615798,36.7154794 107.524137,37.7029079 107.453864,38.5013841 C107.383591,39.2998603 107.327576,39.9510349 107.28582,40.4549079 C107.244063,40.958781 107.222676,41.3783365 107.222676,41.7145905 C107.222676,43.8438603 107.601539,45.3697016 108.359266,46.2931302 C109.118012,47.2175746 110.366632,47.6797968 112.107163,47.6797968 C113.089968,47.6797968 113.897599,47.5324952 114.529038,47.2389079 C115.160477,46.9443048 115.658499,46.5531937 116.024123,46.062527 C116.388728,45.5728762 116.641303,45.0263365 116.781849,44.4239238 C116.922396,43.822527 116.992669,43.2130032 116.992669,42.5973841 C116.992669,42.4571937 116.859252,42.3657651 116.592418,42.3241143 M102.695665,19.2617651 C101.895163,18.5760508 100.884861,18.0376381 99.6637387,17.6444952 C98.442617,17.2533841 97.0035469,17.0563048 95.3465284,17.0563048 C93.26889,17.0563048 91.4794731,17.358019 89.977259,17.9604317 C88.475045,18.5628444 87.2050376,19.3531937 86.1662185,20.3335111 C85.1273993,21.3138286 84.2780118,22.4272254 83.6180561,23.6726857 C82.9581004,24.9191619 82.4458199,26.1869714 82.0812148,27.4750984 C81.7166096,28.7632254 81.4701446,30.0157968 81.3438568,31.2338286 C81.217569,32.4518603 81.1544251,33.5236063 81.1544251,34.4480508 C81.1544251,37.0243048 81.5057904,39.166781 82.2075026,40.8744635 C82.9092148,42.5831619 83.8217461,43.9413841 84.9450967,44.9491302 C86.0674288,45.9578921 87.3455838,46.6720508 88.7775247,47.0916063 C90.2094657,47.5121778 91.6403882,47.7214476 93.0733476,47.7214476 C94.5042701,47.7214476 95.7742775,47.5599238 96.8843882,47.2389079 C97.992462,46.9168762 98.9263808,46.510527 99.6841077,46.0208762 C100.442853,45.5312254 101.038646,45.006019 101.474543,44.4452571 C101.909421,43.8855111 102.183385,43.3674159 102.295414,42.8909714 C102.491975,42.1077333 102.646779,41.3996698 102.758809,40.7698286 C102.870838,40.1399873 102.927872,39.6005587 102.927872,39.1525587 C102.927872,38.3124317 102.646779,37.8918603 102.085613,37.8918603 C101.635458,37.8918603 101.193451,38.0604952 100.758573,38.3967492 C100.322676,38.7319873 99.8246539,39.1109079 99.2634878,39.5304635 C98.7013033,39.9510349 98.0209786,40.3289397 97.2204768,40.6651937 C96.4209934,41.0004317 95.4453181,41.1690667 94.2944694,41.1690667 C92.4969048,41.1690667 91.1708827,40.622527 90.3143661,39.5304635 C89.4578494,38.4384 89.0301004,36.6047492 89.0301004,34.0274794 C89.0301004,33.4961778 89.0514878,32.8653206 89.0932443,32.1369397 C89.1350007,31.4095746 89.232772,30.6537651 89.3875764,29.8684952 C89.5423808,29.0852571 89.7521815,28.3152254 90.0200339,27.5584 C90.2858494,26.8025905 90.6372148,26.1239873 91.072093,25.5215746 C91.5069712,24.9191619 92.0406391,24.4284952 92.6730967,24.0505905 C93.3045358,23.6726857 94.0693919,23.4837333 94.9676649,23.4837333 C95.5848458,23.4837333 96.069628,23.5893841 96.4209934,23.798654 C96.7713402,24.0089397 97.031045,24.3451937 97.2001077,24.8074159 C97.368152,25.2696381 97.4669417,25.8507175 97.4944399,26.550654 C97.521938,27.2505905 97.5504546,28.0775111 97.5789712,29.0283683 C97.5789712,29.3371937 97.6563734,29.5403683 97.8101594,29.6378921 C97.9649638,29.7364317 98.3509565,29.7851937 98.9691557,29.7851937 C100.906248,29.7851937 102.401333,29.3717333 103.453392,28.5458286 C104.506469,27.7199238 105.033008,26.4104635 105.033008,24.6184635 C105.033008,23.582273 104.843576,22.6019556 104.464713,21.6775111 C104.085849,20.7530667 103.496167,19.9484952 102.695665,19.2617651" id="Fill-7" fill="#0090FF"></path>
            </g>
        </g>
    </g>
</svg>