<?xml version="1.0" encoding="UTF-8"?>
<svg width="40px" height="41px" viewBox="0 0 40 41" version="1.1" xmlns="http://www.w3.org/2000/svg" xmlns:xlink="http://www.w3.org/1999/xlink">
    <!-- Generator: Sketch 46.1 (44463) - http://www.bohemiancoding.com/sketch -->
    <title>logo_svg</title>
    <desc>Created with Sketch.</desc>
    <defs></defs>
    <g id="Page-1" stroke="none" stroke-width="1" fill="none" fill-rule="evenodd">
        <g id="loader" transform="translate(-654.000000, -404.000000)" fill="#D2E8FA">
            <g id="Rectangle" transform="translate(113.000000, 217.000000)">
                <g id="Group-2" transform="translate(500.000000, 148.000000)">
                    <g id="Group-3" transform="translate(41.000000, 39.000000)">
                        <g id="Group-4">
                            <g id="logo_svg">
                                <path d="M20.7782295,0.297347619 C16.072,0.297347619 11.7788852,2.02390317 8.48708197,4.86917302 C6.58085246,6.78510952 6.03790164,8.66395079 10.8549508,8.05676032 L10.856918,8.05676032 C14.0228197,7.59079206 17.6188852,7.16842698 20.2083934,7.16842698 C25.9401967,7.16842698 30.429377,9.43774444 30.3821639,14.428681 C30.3428197,18.7636175 26.9815082,23.8085698 19.7467541,24.8068873 C19.7192131,24.8179508 19.6838033,24.8277127 19.6280656,24.8381254 C18.3159344,25.0606968 19.2129836,28.0419825 25.6805246,30.6978714 C27.0018361,31.2425857 28.309377,31.6128873 29.5598689,31.8719032 C32.924459,32.4127127 35.6208525,30.4707444 36.9775738,28.2547921 C38.5939672,25.5084429 39.5257705,22.313046 39.5257705,18.9009349 C39.5257705,8.62490317 31.1336393,0.297347619 20.7782295,0.297347619" id="Fill-1"></path>
                                <path d="M24.4940984,35.2798492 C24.4586885,35.2707381 24.444918,35.2544683 24.4186885,35.2414524 C19.2186885,33.3697698 16.4403279,29.3036111 15.1078689,26.5982619 C15.1052459,26.5924048 15.0993443,26.5898016 15.097377,26.5845952 C14.5019672,25.4736905 14.0390164,24.6673571 13.6029508,24.535246 C13.167541,24.4063889 12.6245902,24.6335159 12.2154098,25.7808651 C11.7104918,27.2327857 10.9963934,29.4799762 10.512459,31.8033095 C10.3177049,33.1387381 10.3498361,34.3466111 11.9347541,35.2902619 C14.5714754,36.6953254 17.5780328,37.5042619 20.7780328,37.5042619 C22.0934426,37.5042619 23.3740984,37.368246 24.6101639,37.1118333 C25.9209836,36.7851349 26.0304918,35.6735794 24.4940984,35.2798492" id="Fill-3"></path>
                                <path d="M20.7610492,10.5710365 L20.768918,10.5606238 C20.464,10.5606238 20.156459,10.5619254 19.8469508,10.5645286 L19.8456393,10.5645286 C14.6705574,10.6113857 8.96367213,11.1398302 5.19777049,15.0745286 L5.19777049,15.0563063 C5.1282623,15.1350524 5.05613115,15.2203063 4.984,15.3029571 C4.76301639,15.5483063 4.5492459,15.8066714 4.34203279,16.0767508 C4.32695082,16.0962746 4.31318033,16.1144968 4.29809836,16.1340206 C4.19580328,16.2693857 4.08891803,16.3930365 3.99121311,16.5336079 C3.98531148,16.542719 3.97940984,16.5518302 3.9735082,16.5622429 C2.00891803,19.2057667 -0.0179672131,23.2048937 0.404983607,28.0949571 C0.420721311,28.2635127 0.439081967,28.4184016 0.458754098,28.5661317 C0.797114754,32.1233698 2.91842623,35.8719413 8.61809836,38.7829413 C9.18793443,39.0757984 10.0259672,39.4265762 10.5695738,39.6283222 C12.5584262,40.3611159 15.4692459,40.7034333 15.9492459,40.5960524 C16.4895738,40.4750048 15.9492459,40.1814968 15.9492459,40.1814968 C15.9492459,40.1814968 9.83383607,39.1122429 7.79842623,36.408846 C7.79711475,36.4062429 7.79580328,36.4042905 7.79383607,36.4029889 C6.47514754,34.6419413 6.2082623,32.6635286 6.30990164,30.9851317 C6.36563934,30.0837825 6.52498361,29.2676873 6.68760656,28.6214492 L6.68760656,28.6201476 C7.00563934,27.3517508 7.38793443,25.8275921 7.78990164,24.2103698 C8.89940984,20.2984492 9.90662295,16.7301476 10.1223607,15.927719 C10.2902295,15.2827825 10.7780984,14.7061794 11.3420328,14.2376079 C11.8862951,13.7892111 12.5328525,13.4683698 13.2017049,13.3362587 L13.2030164,13.3362587 C14.6135082,13.0603222 15.6148197,13.6434333 15.2856393,15.1161794 C14.928918,16.5336079 14.4961311,18.2822905 14.3210492,18.9005444 C14.0502295,19.8494016 14.8102295,21.3820206 18.6325246,21.3820206 C21.0226885,21.3820206 23.1249836,20.5548619 24.3662951,18.7586714 C25.1118689,17.6816079 25.5472787,16.2544175 25.5472787,14.4452111 C25.5472787,11.7392111 23.4403934,10.6920841 20.7610492,10.5710365" id="Fill-5"></path>
                            </g>
                        </g>
                    </g>
                </g>
            </g>
        </g>
    </g>
</svg>